<svg width="194" height="152" viewBox="0 0 194 152" fill="none" xmlns="http://www.w3.org/2000/svg">
<path d="M89.7266 131.984L88.0764 130.854L88.0722 130.86L89.7266 131.984ZM14.7266 131.398L13.0678 132.516L13.0719 132.522L14.7266 131.398ZM14.4336 20.9492L16.0851 22.0773L16.0879 22.0731L14.4336 20.9492ZM89.3359 21.7305L87.6758 22.8459L87.6798 22.8518L89.3359 21.7305ZM36.6992 114.309L34.8379 115.04L34.8417 115.05L34.8456 115.06L36.6992 114.309ZM67.168 38.918L65.3154 39.6716L65.3193 39.6811L65.3232 39.6906L67.168 38.918ZM36.7969 38.918L38.6527 39.6635L38.6549 39.658L36.7969 38.918ZM100.031 76.6133C100.031 101.402 95.9401 119.371 88.0764 130.854L91.3767 133.114C99.9193 120.64 104.031 101.694 104.031 76.6133H100.031ZM88.0722 130.86C80.3752 142.191 68.4933 147.953 52.0312 147.953V151.953C69.5536 151.953 82.8019 145.737 91.3809 133.108L88.0722 130.86ZM52.0312 147.953C36.1434 147.953 24.365 142.034 16.3812 130.275L13.0719 132.522C21.885 145.502 34.9763 151.953 52.0312 151.953V147.953ZM16.3853 130.281C8.37336 118.388 4.22656 100.593 4.22656 76.6133H0.226562C0.226562 100.941 4.41309 119.669 13.0679 132.516L16.3853 130.281ZM4.22656 76.6133C4.22656 51.5554 8.28794 33.4923 16.0851 22.0773L12.7821 19.8211C4.3032 32.2342 0.226562 51.2806 0.226562 76.6133H4.22656ZM16.0879 22.0731C23.7865 10.7408 35.6376 4.98047 52.0312 4.98047V0.980469C34.5708 0.980469 21.3567 7.19933 12.7792 19.8253L16.0879 22.0731ZM52.0312 4.98047C67.9101 4.98047 79.6882 10.9573 87.6758 22.8458L90.996 20.6151C82.1868 7.50365 69.0951 0.980469 52.0312 0.980469V4.98047ZM87.6798 22.8518C95.8221 34.8772 100.031 52.7062 100.031 76.6133H104.031C104.031 52.3433 99.7769 33.5837 90.992 20.6092L87.6798 22.8518ZM30.207 76.6133C30.207 94.1567 31.6957 107.048 34.8379 115.04L38.5605 113.577C35.7132 106.335 34.207 94.0959 34.207 76.6133H30.207ZM34.8456 115.06C36.4755 119.082 38.714 122.252 41.6387 124.413C44.5812 126.587 48.0795 127.637 52.0312 127.637V123.637C48.8215 123.637 46.1838 122.798 44.0156 121.196C41.8297 119.581 39.9829 117.087 38.5528 113.558L34.8456 115.06ZM52.0312 127.637C55.9345 127.637 59.397 126.562 62.3198 124.351C65.2205 122.157 67.4602 118.943 69.1182 114.867L65.413 113.36C63.9461 116.966 62.0842 119.514 59.9067 121.161C57.7514 122.791 55.1593 123.637 52.0312 123.637V127.637ZM69.1182 114.867C72.3986 106.803 73.9531 93.9696 73.9531 76.6133H69.9531C69.9531 93.8923 68.3827 106.059 65.413 113.36L69.1182 114.867ZM73.9531 76.6133C73.9531 59.0659 72.3674 46.1554 69.0127 38.1454L65.3232 39.6906C68.3488 46.9149 69.9531 59.1347 69.9531 76.6133H73.9531ZM69.0206 38.1644C67.3637 34.0912 65.1339 30.8784 62.2515 28.6841C59.3459 26.472 55.9064 25.3945 52.0312 25.3945V29.3945C55.1223 29.3945 57.6886 30.2376 59.8286 31.8667C61.9917 33.5135 63.8473 36.0625 65.3154 39.6716L69.0206 38.1644ZM52.0312 25.3945C48.1 25.3945 44.6199 26.467 41.6939 28.6803C38.7889 30.8777 36.5643 34.0969 34.9388 38.1779L38.6549 39.658C40.0893 36.0568 41.9338 33.5143 44.1069 31.8705C46.259 30.2426 48.8661 29.3945 52.0312 29.3945V25.3945ZM34.941 38.1725C31.728 46.1707 30.207 59.0686 30.207 76.6133H34.207C34.207 59.132 35.7459 46.8996 38.6527 39.6635L34.941 38.1725ZM191.875 148V150H193.875V148H191.875ZM161.699 148H159.699V150H161.699V148ZM161.699 65.3828L159.7 65.3397L159.699 65.3612V65.3828H161.699ZM161.992 51.8086L159.993 51.7428L159.993 51.7541L159.993 51.7654L161.992 51.8086ZM162.48 36.9648L164.479 37.0306L164.646 31.9711L161.066 35.5506L162.48 36.9648ZM152.031 46.8281L150.782 45.2664L150.778 45.2691L152.031 46.8281ZM135.625 60.0117L134.064 61.2621L135.316 62.8254L136.878 61.5707L135.625 60.0117ZM121.074 41.8477L119.828 40.283L118.259 41.5325L119.513 43.0981L121.074 41.8477ZM167.07 5.22656V3.22656H166.371L165.825 3.66191L167.07 5.22656ZM191.875 5.22656H193.875V3.22656H191.875V5.22656ZM191.875 146H161.699V150H191.875V146ZM163.699 148V65.3828H159.699V148H163.699ZM163.699 65.426L163.992 51.8517L159.993 51.7654L159.7 65.3397L163.699 65.426ZM163.991 51.8743L164.479 37.0306L160.482 36.8991L159.993 51.7428L163.991 51.8743ZM161.066 35.5506C156.043 40.5735 152.635 43.7836 150.782 45.2664L153.281 48.3899C155.333 46.7476 158.891 43.3823 163.895 38.3791L161.066 35.5506ZM150.778 45.2691L134.372 58.4527L136.878 61.5707L153.284 48.3871L150.778 45.2691ZM137.186 58.7613L122.635 40.5972L119.513 43.0981L134.064 61.2621L137.186 58.7613ZM122.32 43.4123L168.316 6.79121L165.825 3.66191L119.828 40.283L122.32 43.4123ZM167.07 7.22656H191.875V3.22656H167.07V7.22656ZM189.875 5.22656V148H193.875V5.22656H189.875Z" fill="#FFF800"/>
</svg>
