<svg width="177" height="123" viewBox="0 0 177 123" fill="none" xmlns="http://www.w3.org/2000/svg">
<path d="M72.7812 106.188L71.1311 105.057L71.1269 105.064L72.7812 106.188ZM12.7812 105.719L11.1225 106.836L11.1266 106.842L12.7812 105.719ZM12.5469 17.3594L14.1984 18.4875L14.2012 18.4833L12.5469 17.3594ZM72.4688 17.9844L70.8086 19.0998L70.8127 19.1057L72.4688 17.9844ZM30.3594 92.0469L28.4981 92.7787L28.5019 92.7883L28.5057 92.7979L30.3594 92.0469ZM54.7344 31.7344L52.8818 32.488L52.8857 32.4975L52.8896 32.507L54.7344 31.7344ZM30.4375 31.7344L32.2934 32.4799L32.2955 32.4744L30.4375 31.7344ZM80.625 61.8906C80.625 81.6926 77.3541 95.9698 71.1311 105.057L74.4314 107.318C81.3334 97.2385 84.625 81.9845 84.625 61.8906H80.625ZM71.1269 105.064C65.0575 113.998 55.6886 118.562 42.625 118.562V122.562C56.7489 122.562 67.4842 117.544 74.4356 107.311L71.1269 105.064ZM42.625 118.562C30.0315 118.562 20.74 113.88 14.4359 104.595L11.1266 106.842C18.26 117.349 28.8644 122.562 42.625 122.562V118.562ZM14.44 104.601C8.09472 95.1826 4.78125 81.04 4.78125 61.8906H0.78125C0.78125 81.3871 4.13445 96.4632 11.1225 106.836L14.44 104.601ZM4.78125 61.8906C4.78125 41.8718 8.02883 27.5197 14.1984 18.4874L10.8954 16.2313C4.04409 26.2616 0.78125 41.597 0.78125 61.8906H4.78125ZM14.2012 18.4833C20.2722 9.54676 29.6167 4.98438 42.625 4.98438V0.984375C28.5499 0.984375 17.8424 6.00532 10.8925 16.2355L14.2012 18.4833ZM42.625 4.98438C55.2096 4.98438 64.5007 9.71119 70.8087 19.0998L74.1288 16.869C66.9993 6.25756 56.3945 0.984375 42.625 0.984375V4.98438ZM70.8127 19.1057C77.2622 28.6311 80.625 42.8012 80.625 61.8906H84.625C84.625 42.4383 81.217 27.3376 74.1248 16.8631L70.8127 19.1057ZM24.7656 61.8906C24.7656 75.9315 25.9548 86.3099 28.4981 92.7787L32.2207 91.3151C29.9723 85.5964 28.7656 75.8706 28.7656 61.8906H24.7656ZM28.5057 92.7979C29.8296 96.0654 31.6596 98.669 34.0732 100.452C36.5047 102.249 39.3894 103.109 42.625 103.109V99.1094C40.1314 99.1094 38.1073 98.4595 36.4502 97.2352C34.7753 95.9977 33.337 94.07 32.213 91.2958L28.5057 92.7979ZM42.625 103.109C45.8251 103.109 48.6822 102.226 51.0972 100.4C53.49 98.5898 55.3195 95.9521 56.6651 92.6442L52.9599 91.137C51.8055 93.975 50.3537 95.9467 48.6841 97.2096C47.0366 98.4558 45.0499 99.1094 42.625 99.1094V103.109ZM56.6651 92.6442C59.3205 86.1165 60.5625 75.7834 60.5625 61.8906H56.5625C56.5625 75.7061 55.3045 85.3731 52.9599 91.137L56.6651 92.6442ZM60.5625 61.8906C60.5625 47.8458 59.2957 37.4484 56.5791 30.9618L52.8896 32.507C55.2772 38.2078 56.5625 47.9146 56.5625 61.8906H60.5625ZM56.587 30.9808C55.2426 27.6758 53.4214 25.0392 51.0435 23.229C48.6424 21.4011 45.8035 20.5156 42.625 20.5156V24.5156C45.0194 24.5156 46.9852 25.1667 48.6206 26.4116C50.2791 27.6743 51.7262 29.6471 52.8818 32.488L56.587 30.9808ZM42.625 20.5156C39.4034 20.5156 36.532 21.396 34.1138 23.2252C31.7166 25.0385 29.899 27.6815 28.5795 30.9943L32.2955 32.4744C33.424 29.6414 34.8615 27.6751 36.5268 26.4154C38.1711 25.1717 40.1695 24.5156 42.625 24.5156V20.5156ZM28.5816 30.9889C25.9806 37.4637 24.7656 47.8485 24.7656 61.8906H28.7656C28.7656 47.9119 29.9985 38.1925 32.2934 32.4799L28.5816 30.9889ZM174.656 119V121H176.656V119H174.656ZM94.8125 119H92.8125V121H94.8125V119ZM94.8125 102.203L93.3906 100.797L92.8125 101.381V102.203H94.8125ZM123.484 73.2188L124.906 74.6253L124.916 74.6157L123.484 73.2188ZM140.125 55.1719L141.701 56.4032L141.706 56.3972L141.71 56.3913L140.125 55.1719ZM143.641 26.6562L142.306 28.1459L142.314 28.1528L142.321 28.1595L143.641 26.6562ZM107.625 35.0156L106.097 36.3058L107.374 37.8191L108.9 36.5564L107.625 35.0156ZM94.5 19.4688L93.2031 17.9463L91.6873 19.2375L92.9718 20.7589L94.5 19.4688ZM120.594 4.78125L121.057 6.72686L121.068 6.72426L121.079 6.72154L120.594 4.78125ZM166.922 17.9844L165.241 19.0678L166.922 17.9844ZM168.641 48.9219L166.787 48.1719L166.782 48.1827L168.641 48.9219ZM160.047 63.0625L158.49 61.807L158.482 61.8172L160.047 63.0625ZM139.578 83.7656L138.228 82.29L138.218 82.2997L138.207 82.3095L139.578 83.7656ZM124.891 97.5938L123.52 96.1376L122.891 96.7298V97.5938H124.891ZM124.891 98.6875H122.891V100.688H124.891V98.6875ZM174.656 98.6875H176.656V96.6875H174.656V98.6875ZM174.656 117H94.8125V121H174.656V117ZM96.8125 119V102.203H92.8125V119H96.8125ZM96.2344 103.61L124.906 74.6253L122.063 71.8122L93.3906 100.797L96.2344 103.61ZM124.916 74.6157C133.395 65.9285 139.018 59.8368 141.701 56.4032L138.549 53.9406C136.023 57.1736 130.553 63.1132 122.053 71.8218L124.916 74.6157ZM141.71 56.3913C144.387 52.9117 146.372 49.6261 147.607 46.5397L143.893 45.0541C142.836 47.6968 141.071 50.6612 138.54 53.9525L141.71 56.3913ZM147.607 46.5397C148.847 43.4398 149.469 40.219 149.469 36.8906H145.469C145.469 39.7081 144.945 42.4248 143.893 45.0541L147.607 46.5397ZM149.469 36.8906C149.469 31.9432 148.082 27.8926 144.96 25.153L142.321 28.1595C144.304 29.8991 145.469 32.6714 145.469 36.8906H149.469ZM144.975 25.1666C142.021 22.5202 138.143 21.2969 133.562 21.2969V25.2969C137.42 25.2969 140.26 26.3131 142.306 28.1459L144.975 25.1666ZM133.562 21.2969C128.817 21.2969 124.222 22.3881 119.795 24.546L121.548 28.1415C125.455 26.2369 129.453 25.2969 133.562 25.2969V21.2969ZM119.795 24.546C115.454 26.6624 110.972 29.6493 106.35 33.4748L108.9 36.5564C113.34 32.8819 117.556 30.0876 121.548 28.1415L119.795 24.546ZM109.153 33.7255L96.0282 18.1786L92.9718 20.7589L106.097 36.3058L109.153 33.7255ZM95.7969 20.9912C101.382 16.2336 105.917 12.9552 109.428 11.0758L107.541 7.54917C103.656 9.6281 98.868 13.1206 93.2031 17.9463L95.7969 20.9912ZM109.428 11.0758C112.964 9.18347 116.837 7.73155 121.057 6.72686L120.131 2.83564C115.6 3.91429 111.401 5.4832 107.541 7.54917L109.428 11.0758ZM121.079 6.72154C125.267 5.67444 129.997 5.14062 135.281 5.14062V1.14062C129.733 1.14062 124.67 1.70056 120.109 2.84096L121.079 6.72154ZM135.281 5.14062C142.172 5.14062 148.171 6.39715 153.328 8.8526L155.047 5.24115C149.266 2.48826 142.662 1.14062 135.281 1.14062V5.14062ZM153.328 8.8526C158.491 11.3113 162.438 14.7195 165.241 19.0678L168.603 16.901C165.364 11.8743 160.822 7.99082 155.047 5.24115L153.328 8.8526ZM165.241 19.0678C168.036 23.4053 169.453 28.3873 169.453 34.0781H173.453C173.453 27.6856 171.849 21.9385 168.603 16.901L165.241 19.0678ZM169.453 34.0781C169.453 39.0951 168.56 43.7871 166.787 48.1719L170.495 49.6718C172.471 44.7859 173.453 39.582 173.453 34.0781H169.453ZM166.782 48.1827C165.05 52.5385 162.302 57.0805 158.49 61.807L161.604 64.318C165.604 59.357 168.586 54.4719 170.499 49.661L166.782 48.1827ZM158.482 61.8172C154.732 66.5294 148.009 73.3414 138.228 82.29L140.928 85.2412C150.73 76.2732 157.653 69.2831 161.612 64.3078L158.482 61.8172ZM138.207 82.3095L123.52 96.1376L126.262 99.0499L140.949 85.2218L138.207 82.3095ZM122.891 97.5938V98.6875H126.891V97.5938H122.891ZM124.891 100.688H174.656V96.6875H124.891V100.688ZM172.656 98.6875V119H176.656V98.6875H172.656Z" fill="#FFF800"/>
</svg>
