<svg width="176" height="123" viewBox="0 0 176 123" fill="none" xmlns="http://www.w3.org/2000/svg">
<path d="M72.7812 106.188L71.1311 105.057L71.1269 105.064L72.7812 106.188ZM12.7812 105.719L11.1225 106.836L11.1266 106.842L12.7812 105.719ZM12.5469 17.3594L14.1984 18.4875L14.2012 18.4833L12.5469 17.3594ZM72.4688 17.9844L70.8086 19.0998L70.8127 19.1057L72.4688 17.9844ZM30.3594 92.0469L28.4981 92.7787L28.5019 92.7883L28.5057 92.7979L30.3594 92.0469ZM54.7344 31.7344L52.8818 32.488L52.8857 32.4975L52.8896 32.507L54.7344 31.7344ZM30.4375 31.7344L32.2934 32.4799L32.2955 32.4744L30.4375 31.7344ZM80.625 61.8906C80.625 81.6926 77.3541 95.9698 71.1311 105.057L74.4314 107.318C81.3334 97.2385 84.625 81.9845 84.625 61.8906H80.625ZM71.1269 105.064C65.0575 113.998 55.6886 118.562 42.625 118.562V122.562C56.7489 122.562 67.4842 117.544 74.4356 107.311L71.1269 105.064ZM42.625 118.562C30.0315 118.562 20.74 113.88 14.4359 104.595L11.1266 106.842C18.26 117.349 28.8644 122.562 42.625 122.562V118.562ZM14.44 104.601C8.09472 95.1826 4.78125 81.04 4.78125 61.8906H0.78125C0.78125 81.3871 4.13445 96.4632 11.1225 106.836L14.44 104.601ZM4.78125 61.8906C4.78125 41.8718 8.02883 27.5197 14.1984 18.4874L10.8954 16.2313C4.04409 26.2616 0.78125 41.597 0.78125 61.8906H4.78125ZM14.2012 18.4833C20.2722 9.54676 29.6167 4.98438 42.625 4.98438V0.984375C28.5499 0.984375 17.8424 6.00532 10.8925 16.2355L14.2012 18.4833ZM42.625 4.98438C55.2096 4.98438 64.5007 9.71119 70.8087 19.0998L74.1288 16.869C66.9993 6.25756 56.3945 0.984375 42.625 0.984375V4.98438ZM70.8127 19.1057C77.2622 28.6311 80.625 42.8012 80.625 61.8906H84.625C84.625 42.4383 81.217 27.3376 74.1248 16.8631L70.8127 19.1057ZM24.7656 61.8906C24.7656 75.9315 25.9548 86.3099 28.4981 92.7787L32.2207 91.3151C29.9723 85.5964 28.7656 75.8706 28.7656 61.8906H24.7656ZM28.5057 92.7979C29.8296 96.0654 31.6596 98.669 34.0732 100.452C36.5047 102.249 39.3894 103.109 42.625 103.109V99.1094C40.1314 99.1094 38.1073 98.4595 36.4502 97.2352C34.7753 95.9977 33.337 94.07 32.213 91.2958L28.5057 92.7979ZM42.625 103.109C45.8251 103.109 48.6822 102.226 51.0972 100.4C53.49 98.5898 55.3195 95.9521 56.6651 92.6442L52.9599 91.137C51.8055 93.975 50.3537 95.9467 48.6841 97.2096C47.0366 98.4558 45.0499 99.1094 42.625 99.1094V103.109ZM56.6651 92.6442C59.3205 86.1165 60.5625 75.7834 60.5625 61.8906H56.5625C56.5625 75.7061 55.3045 85.3731 52.9599 91.137L56.6651 92.6442ZM60.5625 61.8906C60.5625 47.8458 59.2957 37.4484 56.5791 30.9618L52.8896 32.507C55.2772 38.2078 56.5625 47.9146 56.5625 61.8906H60.5625ZM56.587 30.9808C55.2426 27.6758 53.4214 25.0392 51.0435 23.229C48.6424 21.4011 45.8035 20.5156 42.625 20.5156V24.5156C45.0194 24.5156 46.9852 25.1667 48.6206 26.4116C50.2791 27.6743 51.7262 29.6471 52.8818 32.488L56.587 30.9808ZM42.625 20.5156C39.4034 20.5156 36.532 21.396 34.1138 23.2252C31.7166 25.0385 29.899 27.6815 28.5795 30.9943L32.2955 32.4744C33.424 29.6414 34.8615 27.6751 36.5268 26.4154C38.1711 25.1717 40.1695 24.5156 42.625 24.5156V20.5156ZM28.5816 30.9889C25.9806 37.4637 24.7656 47.8485 24.7656 61.8906H28.7656C28.7656 47.9119 29.9985 38.1925 32.2934 32.4799L28.5816 30.9889ZM145.516 58.8438L145.049 56.899L143.516 57.267V58.8438H145.516ZM145.516 59.3125H143.516V61.0793L145.269 61.2972L145.516 59.3125ZM166.453 67.75L165.079 69.2036L165.088 69.2116L166.453 67.75ZM161.609 111.422L162.824 113.011L162.831 113.006L161.609 111.422ZM94.5 114.391H92.5V115.708L93.711 116.228L94.5 114.391ZM94.5 93.8438L95.4028 92.0591L92.5 90.5906V93.8438H94.5ZM112.078 69.5469H110.078V71.5469H112.078V69.5469ZM112.078 51.0312V49.0312H110.078V51.0312H112.078ZM140.281 47.5938L141.264 49.3357L141.271 49.3316L140.281 47.5938ZM118.719 24.5469L118.109 22.642L118.102 22.6444L118.719 24.5469ZM105.828 31.0312L104.168 32.146L105.265 33.7801L106.916 32.7094L105.828 31.0312ZM94.6562 14.3906L93.4876 12.7676L91.9169 13.8985L92.9958 15.5054L94.6562 14.3906ZM159.891 10.3281L158.741 11.9648L158.747 11.9689L159.891 10.3281ZM168.203 30.3281C168.203 37.0245 166.189 42.6166 162.206 47.2232L165.232 49.8393C169.895 44.4459 172.203 37.9026 172.203 30.3281H168.203ZM162.206 47.2232C158.211 51.8437 152.544 55.1002 145.049 56.899L145.982 60.7885C154.112 58.8373 160.581 55.2188 165.232 49.8393L162.206 47.2232ZM143.516 58.8438V59.3125H147.516V58.8438H143.516ZM145.269 61.2972C154.239 62.4121 160.756 65.1177 165.079 69.2036L167.827 66.2964C162.671 61.4239 155.23 58.5046 145.762 57.3278L145.269 61.2972ZM165.088 69.2116C169.355 73.1975 171.562 78.6212 171.562 85.7188H175.562C175.562 77.7121 173.03 71.1567 167.818 66.2884L165.088 69.2116ZM171.562 85.7188C171.562 96.1539 167.816 104.109 160.388 109.838L162.831 113.006C171.34 106.443 175.562 97.2627 175.562 85.7188H171.562ZM160.394 109.833C152.906 115.56 142.021 118.562 127.469 118.562V122.562C142.5 122.562 154.376 119.471 162.824 113.011L160.394 109.833ZM127.469 118.562C115.294 118.562 104.581 116.542 95.289 112.553L93.711 116.228C103.586 120.468 114.852 122.562 127.469 122.562V118.562ZM96.5 114.391V93.8438H92.5V114.391H96.5ZM93.5972 95.6284C98.1616 97.9374 103.164 99.8077 108.598 101.246L109.621 97.3791C104.43 96.0048 99.6926 94.2292 95.4028 92.0591L93.5972 95.6284ZM108.598 101.246C114.068 102.694 119.5 103.422 124.891 103.422V99.4219C119.864 99.4219 114.776 98.7436 109.621 97.3791L108.598 101.246ZM124.891 103.422C133.012 103.422 139.401 102.056 143.707 98.9883L141.387 95.7304C138.088 98.0798 132.707 99.4219 124.891 99.4219V103.422ZM143.707 98.9883C148.182 95.8006 150.25 90.7457 150.25 84.3125H146.25C146.25 89.8585 144.516 93.5015 141.387 95.7304L143.707 98.9883ZM150.25 84.3125C150.25 81.3578 149.646 78.7054 148.343 76.4401C147.034 74.1648 145.087 72.3999 142.599 71.126L140.776 74.6865C142.663 75.6522 143.997 76.9081 144.876 78.4349C145.76 79.9716 146.25 81.9026 146.25 84.3125H150.25ZM142.599 71.126C137.783 68.6608 130.404 67.5469 120.75 67.5469V71.5469C130.263 71.5469 136.842 72.6725 140.776 74.6865L142.599 71.126ZM120.75 67.5469H112.078V71.5469H120.75V67.5469ZM114.078 69.5469V51.0312H110.078V69.5469H114.078ZM112.078 53.0312H120.906V49.0312H112.078V53.0312ZM120.906 53.0312C129.846 53.0312 136.737 51.8894 141.264 49.3357L139.299 45.8518C135.701 47.8814 129.674 49.0312 120.906 49.0312V53.0312ZM141.271 49.3316C146.138 46.5593 148.453 41.824 148.453 35.6406H144.453C144.453 40.7073 142.654 43.9407 139.291 45.8559L141.271 49.3316ZM148.453 35.6406C148.453 30.8746 146.938 26.9842 143.638 24.3509C140.425 21.7863 135.833 20.6719 130.203 20.6719V24.6719C135.407 24.6719 138.94 25.7189 141.143 27.4773C143.26 29.1669 144.453 31.7608 144.453 35.6406H148.453ZM130.203 20.6719C126.228 20.6719 122.194 21.3348 118.109 22.642L119.328 26.4517C123.056 25.2589 126.678 24.6719 130.203 24.6719V20.6719ZM118.102 22.6444C114.031 23.9648 109.573 26.2195 104.74 29.3531L106.916 32.7094C111.562 29.6972 115.699 27.629 119.336 26.4493L118.102 22.6444ZM107.489 29.9165L96.3167 13.2758L92.9958 15.5054L104.168 32.146L107.489 29.9165ZM95.8249 16.0137C105.86 8.78868 117.86 5.14062 131.922 5.14062V1.14062C117.13 1.14062 104.286 4.99257 93.4876 12.7676L95.8249 16.0137ZM131.922 5.14062C143.499 5.14062 152.369 7.48972 158.741 11.9648L161.04 8.69142C153.766 3.5832 143.99 1.14062 131.922 1.14062V5.14062ZM158.747 11.9689C165.073 16.3781 168.203 22.4255 168.203 30.3281H172.203C172.203 21.1475 168.458 13.8615 161.034 8.68733L158.747 11.9689Z" fill="#FFF800"/>
</svg>
