<svg width="180" height="123" viewBox="0 0 180 123" fill="none" xmlns="http://www.w3.org/2000/svg">
<path d="M72.7812 106.188L71.1311 105.057L71.1269 105.064L72.7812 106.188ZM12.7812 105.719L11.1225 106.836L11.1266 106.842L12.7812 105.719ZM12.5469 17.3594L14.1984 18.4875L14.2012 18.4833L12.5469 17.3594ZM72.4688 17.9844L70.8086 19.0998L70.8127 19.1057L72.4688 17.9844ZM30.3594 92.0469L28.4981 92.7787L28.5019 92.7883L28.5057 92.7979L30.3594 92.0469ZM54.7344 31.7344L52.8818 32.488L52.8857 32.4975L52.8896 32.507L54.7344 31.7344ZM30.4375 31.7344L32.2934 32.4799L32.2955 32.4744L30.4375 31.7344ZM80.625 61.8906C80.625 81.6926 77.3541 95.9698 71.1311 105.057L74.4314 107.318C81.3334 97.2385 84.625 81.9845 84.625 61.8906H80.625ZM71.1269 105.064C65.0575 113.998 55.6886 118.562 42.625 118.562V122.562C56.7489 122.562 67.4842 117.544 74.4356 107.311L71.1269 105.064ZM42.625 118.562C30.0315 118.562 20.74 113.88 14.4359 104.595L11.1266 106.842C18.26 117.349 28.8644 122.562 42.625 122.562V118.562ZM14.44 104.601C8.09472 95.1826 4.78125 81.04 4.78125 61.8906H0.78125C0.78125 81.3871 4.13445 96.4632 11.1225 106.836L14.44 104.601ZM4.78125 61.8906C4.78125 41.8718 8.02883 27.5197 14.1984 18.4874L10.8954 16.2313C4.04409 26.2616 0.78125 41.597 0.78125 61.8906H4.78125ZM14.2012 18.4833C20.2722 9.54676 29.6167 4.98438 42.625 4.98438V0.984375C28.5499 0.984375 17.8424 6.00532 10.8925 16.2355L14.2012 18.4833ZM42.625 4.98438C55.2096 4.98438 64.5007 9.71119 70.8087 19.0998L74.1288 16.869C66.9993 6.25756 56.3945 0.984375 42.625 0.984375V4.98438ZM70.8127 19.1057C77.2622 28.6311 80.625 42.8012 80.625 61.8906H84.625C84.625 42.4383 81.217 27.3376 74.1248 16.8631L70.8127 19.1057ZM24.7656 61.8906C24.7656 75.9315 25.9548 86.3099 28.4981 92.7787L32.2207 91.3151C29.9723 85.5964 28.7656 75.8706 28.7656 61.8906H24.7656ZM28.5057 92.7979C29.8296 96.0654 31.6596 98.669 34.0732 100.452C36.5047 102.249 39.3894 103.109 42.625 103.109V99.1094C40.1314 99.1094 38.1073 98.4595 36.4502 97.2352C34.7753 95.9977 33.337 94.07 32.213 91.2958L28.5057 92.7979ZM42.625 103.109C45.8251 103.109 48.6822 102.226 51.0972 100.4C53.49 98.5898 55.3195 95.9521 56.6651 92.6442L52.9599 91.137C51.8055 93.975 50.3537 95.9467 48.6841 97.2096C47.0366 98.4558 45.0499 99.1094 42.625 99.1094V103.109ZM56.6651 92.6442C59.3205 86.1165 60.5625 75.7834 60.5625 61.8906H56.5625C56.5625 75.7061 55.3045 85.3731 52.9599 91.137L56.6651 92.6442ZM60.5625 61.8906C60.5625 47.8458 59.2957 37.4484 56.5791 30.9618L52.8896 32.507C55.2772 38.2078 56.5625 47.9146 56.5625 61.8906H60.5625ZM56.587 30.9808C55.2426 27.6758 53.4214 25.0392 51.0435 23.229C48.6424 21.4011 45.8035 20.5156 42.625 20.5156V24.5156C45.0194 24.5156 46.9852 25.1667 48.6206 26.4116C50.2791 27.6743 51.7262 29.6471 52.8818 32.488L56.587 30.9808ZM42.625 20.5156C39.4034 20.5156 36.532 21.396 34.1138 23.2252C31.7166 25.0385 29.899 27.6815 28.5795 30.9943L32.2955 32.4744C33.424 29.6414 34.8615 27.6751 36.5268 26.4154C38.1711 25.1717 40.1695 24.5156 42.625 24.5156V20.5156ZM28.5816 30.9889C25.9806 37.4637 24.7656 47.8485 24.7656 61.8906H28.7656C28.7656 47.9119 29.9985 38.1925 32.2934 32.4799L28.5816 30.9889ZM177.234 95.3281V97.3281H179.234V95.3281H177.234ZM163.484 95.3281V93.3281H161.484V95.3281H163.484ZM163.484 119V121H165.484V119H163.484ZM139.891 119H137.891V121H139.891V119ZM139.891 95.3281H141.891V93.3281H139.891V95.3281ZM91.1406 95.3281H89.1406V97.3281H91.1406V95.3281ZM91.1406 78.5312L89.486 77.4077L89.1406 77.9164V78.5312H91.1406ZM141.219 4.78125V2.78125H140.159L139.564 3.65773L141.219 4.78125ZM163.484 4.78125H165.484V2.78125H163.484V4.78125ZM163.484 76.5781H161.484V78.5781H163.484V76.5781ZM177.234 76.5781H179.234V74.5781H177.234V76.5781ZM139.891 76.5781V78.5781H141.891V76.5781H139.891ZM140.906 32.4375L142.882 32.7494L143.247 30.4375H140.906V32.4375ZM140.281 32.4375V30.4375H138.99L138.458 31.6149L140.281 32.4375ZM133.328 44.9375L131.664 43.8281L131.66 43.8338L133.328 44.9375ZM112.391 76.5781L110.723 75.4744L108.669 78.5781H112.391V76.5781ZM177.234 93.3281H163.484V97.3281H177.234V93.3281ZM161.484 95.3281V119H165.484V95.3281H161.484ZM163.484 117H139.891V121H163.484V117ZM141.891 119V95.3281H137.891V119H141.891ZM139.891 93.3281H91.1406V97.3281H139.891V93.3281ZM93.1406 95.3281V78.5312H89.1406V95.3281H93.1406ZM92.7952 79.6548L142.873 5.90477L139.564 3.65773L89.486 77.4077L92.7952 79.6548ZM141.219 6.78125H163.484V2.78125H141.219V6.78125ZM161.484 4.78125V76.5781H165.484V4.78125H161.484ZM163.484 78.5781H177.234V74.5781H163.484V78.5781ZM175.234 76.5781V95.3281H179.234V76.5781H175.234ZM141.891 76.5781V57.2031H137.891V76.5781H141.891ZM141.891 57.2031C141.891 54.017 142.019 49.3632 142.279 43.2253L138.283 43.056C138.022 49.2097 137.891 53.9309 137.891 57.2031H141.891ZM142.279 43.2253C142.543 37.0063 142.748 33.5943 142.882 32.7494L138.931 32.1256C138.752 33.2599 138.54 36.9833 138.283 43.056L142.279 43.2253ZM140.906 30.4375H140.281V34.4375H140.906V30.4375ZM138.458 31.6149C136.578 35.7819 134.314 39.8529 131.664 43.8281L134.992 46.0469C137.759 41.8971 140.13 37.6348 142.104 33.2601L138.458 31.6149ZM131.66 43.8338L110.723 75.4744L114.059 77.6818L134.996 46.0412L131.66 43.8338ZM112.391 78.5781H139.891V74.5781H112.391V78.5781Z" fill="#FFF800"/>
</svg>
