<svg width="175" height="123" viewBox="0 0 175 123" fill="none" xmlns="http://www.w3.org/2000/svg">
<path d="M72.7812 106.188L71.1311 105.057L71.1269 105.064L72.7812 106.188ZM12.7812 105.719L11.1225 106.836L11.1266 106.842L12.7812 105.719ZM12.5469 17.3594L14.1984 18.4875L14.2012 18.4833L12.5469 17.3594ZM72.4688 17.9844L70.8086 19.0998L70.8127 19.1057L72.4688 17.9844ZM30.3594 92.0469L28.4981 92.7787L28.5019 92.7883L28.5057 92.7979L30.3594 92.0469ZM54.7344 31.7344L52.8818 32.488L52.8857 32.4975L52.8896 32.507L54.7344 31.7344ZM30.4375 31.7344L32.2934 32.4799L32.2955 32.4744L30.4375 31.7344ZM80.625 61.8906C80.625 81.6926 77.3541 95.9698 71.1311 105.057L74.4314 107.318C81.3334 97.2385 84.625 81.9845 84.625 61.8906H80.625ZM71.1269 105.064C65.0575 113.998 55.6886 118.562 42.625 118.562V122.562C56.7489 122.562 67.4842 117.544 74.4356 107.311L71.1269 105.064ZM42.625 118.562C30.0315 118.562 20.74 113.88 14.4359 104.595L11.1266 106.842C18.26 117.349 28.8644 122.562 42.625 122.562V118.562ZM14.44 104.601C8.09472 95.1826 4.78125 81.04 4.78125 61.8906H0.78125C0.78125 81.3871 4.13445 96.4632 11.1225 106.836L14.44 104.601ZM4.78125 61.8906C4.78125 41.8718 8.02883 27.5197 14.1984 18.4874L10.8954 16.2313C4.04409 26.2616 0.78125 41.597 0.78125 61.8906H4.78125ZM14.2012 18.4833C20.2722 9.54676 29.6167 4.98438 42.625 4.98438V0.984375C28.5499 0.984375 17.8424 6.00532 10.8925 16.2355L14.2012 18.4833ZM42.625 4.98438C55.2096 4.98438 64.5007 9.71119 70.8087 19.0998L74.1288 16.869C66.9993 6.25756 56.3945 0.984375 42.625 0.984375V4.98438ZM70.8127 19.1057C77.2622 28.6311 80.625 42.8012 80.625 61.8906H84.625C84.625 42.4383 81.217 27.3376 74.1248 16.8631L70.8127 19.1057ZM24.7656 61.8906C24.7656 75.9315 25.9548 86.3099 28.4981 92.7787L32.2207 91.3151C29.9723 85.5964 28.7656 75.8706 28.7656 61.8906H24.7656ZM28.5057 92.7979C29.8296 96.0654 31.6596 98.669 34.0732 100.452C36.5047 102.249 39.3894 103.109 42.625 103.109V99.1094C40.1314 99.1094 38.1073 98.4595 36.4502 97.2352C34.7753 95.9977 33.337 94.07 32.213 91.2958L28.5057 92.7979ZM42.625 103.109C45.8251 103.109 48.6822 102.226 51.0972 100.4C53.49 98.5898 55.3195 95.9521 56.6651 92.6442L52.9599 91.137C51.8055 93.975 50.3537 95.9467 48.6841 97.2096C47.0366 98.4558 45.0499 99.1094 42.625 99.1094V103.109ZM56.6651 92.6442C59.3205 86.1165 60.5625 75.7834 60.5625 61.8906H56.5625C56.5625 75.7061 55.3045 85.3731 52.9599 91.137L56.6651 92.6442ZM60.5625 61.8906C60.5625 47.8458 59.2957 37.4484 56.5791 30.9618L52.8896 32.507C55.2772 38.2078 56.5625 47.9146 56.5625 61.8906H60.5625ZM56.587 30.9808C55.2426 27.6758 53.4214 25.0392 51.0435 23.229C48.6424 21.4011 45.8035 20.5156 42.625 20.5156V24.5156C45.0194 24.5156 46.9852 25.1667 48.6206 26.4116C50.2791 27.6743 51.7262 29.6471 52.8818 32.488L56.587 30.9808ZM42.625 20.5156C39.4034 20.5156 36.532 21.396 34.1138 23.2252C31.7166 25.0385 29.899 27.6815 28.5795 30.9943L32.2955 32.4744C33.424 29.6414 34.8615 27.6751 36.5268 26.4154C38.1711 25.1717 40.1695 24.5156 42.625 24.5156V20.5156ZM28.5816 30.9889C25.9806 37.4637 24.7656 47.8485 24.7656 61.8906H28.7656C28.7656 47.9119 29.9985 38.1925 32.2934 32.4799L28.5816 30.9889ZM162.703 55.3281L161.324 56.7767L161.33 56.7822L162.703 55.3281ZM160.75 110.25L159.434 108.744L160.75 110.25ZM96.2188 114.391H94.2188V115.598L95.2868 116.16L96.2188 114.391ZM96.2188 93.5312L97.1576 91.7653L94.2188 90.2029V93.5312H96.2188ZM110.594 98.9219L110.096 100.859L110.104 100.861L110.113 100.863L110.594 98.9219ZM116.219 66.4219L116.528 68.3979L116.543 68.3956L116.558 68.393L116.219 66.4219ZM108.094 68.1406L107.148 69.9029L107.877 70.2938L108.668 70.0563L108.094 68.1406ZM98.4844 62.9844L96.4898 62.8371L96.3942 64.1325L97.5387 64.7467L98.4844 62.9844ZM102.781 4.78125V2.78125H100.923L100.787 4.634L102.781 4.78125ZM164.734 4.78125H166.734V2.78125H164.734V4.78125ZM164.734 25.25V27.25H166.734V25.25H164.734ZM123.953 25.25V23.25H122.132L121.962 25.0627L123.953 25.25ZM121.844 47.6719L119.853 47.4845L119.601 50.1601L122.236 49.633L121.844 47.6719ZM124.578 47.125L124.97 49.0862L124.998 49.0806L125.026 49.0743L124.578 47.125ZM136.375 48.0312C147.027 48.0312 155.266 51.0097 161.324 56.7767L164.082 53.8796C157.119 47.2507 147.806 44.0312 136.375 44.0312V48.0312ZM161.33 56.7822C167.415 62.5295 170.547 70.4502 170.547 80.7969H174.547C174.547 69.5811 171.116 60.5225 164.076 53.8741L161.33 56.7822ZM170.547 80.7969C170.547 93.1193 166.769 102.332 159.434 108.744L162.066 111.756C170.46 104.418 174.547 93.9953 174.547 80.7969H170.547ZM159.434 108.744C152.057 115.193 141.344 118.562 127 118.562V122.562C141.926 122.562 153.714 119.057 162.066 111.756L159.434 108.744ZM127 118.562C114.483 118.562 104.578 116.532 97.1507 112.621L95.2868 116.16C103.485 120.478 114.1 122.562 127 122.562V118.562ZM98.2188 114.391V93.5312H94.2188V114.391H98.2188ZM95.2799 95.2972C99.5599 97.5726 104.505 99.4212 110.096 100.859L111.092 96.9849C105.745 95.61 101.107 93.8649 97.1576 91.7653L95.2799 95.2972ZM110.113 100.863C115.716 102.251 121.061 102.953 126.141 102.953V98.9531C121.429 98.9531 116.409 98.3014 111.074 96.9805L110.113 100.863ZM126.141 102.953C133.733 102.953 139.799 101.405 143.991 97.9686C148.259 94.4696 150.25 89.2945 150.25 82.8281H146.25C146.25 88.445 144.556 92.3325 141.455 94.8752C138.277 97.4802 133.288 98.9531 126.141 98.9531V102.953ZM150.25 82.8281C150.25 76.5892 148.153 71.6167 143.732 68.2822C139.417 65.0279 133.184 63.5625 125.359 63.5625V67.5625C132.795 67.5625 138.007 68.9748 141.323 71.4756C144.532 73.8964 146.25 77.5567 146.25 82.8281H150.25ZM125.359 63.5625C122.463 63.5625 119.301 63.8627 115.88 64.4508L116.558 68.393C119.803 67.8352 122.734 67.5625 125.359 67.5625V63.5625ZM115.91 64.4459C112.53 64.974 109.723 65.5637 107.519 66.225L108.668 70.0563C110.631 69.4675 113.241 68.9114 116.528 68.3979L115.91 64.4459ZM109.039 66.3783L99.43 61.2221L97.5387 64.7467L107.148 69.9029L109.039 66.3783ZM100.479 63.1316L104.776 4.9285L100.787 4.634L96.4898 62.8371L100.479 63.1316ZM102.781 6.78125H164.734V2.78125H102.781V6.78125ZM162.734 4.78125V25.25H166.734V4.78125H162.734ZM164.734 23.25H123.953V27.25H164.734V23.25ZM121.962 25.0627L119.853 47.4845L123.835 47.8592L125.944 25.4373L121.962 25.0627ZM122.236 49.633L124.97 49.0862L124.186 45.1638L121.452 45.7107L122.236 49.633ZM125.026 49.0743C128.007 48.39 131.779 48.0312 136.375 48.0312V44.0312C131.596 44.0312 127.503 44.4017 124.131 45.1757L125.026 49.0743Z" fill="#FFF800"/>
</svg>
