<svg width="177" height="123" viewBox="0 0 177 123" fill="none" xmlns="http://www.w3.org/2000/svg">
<path d="M72.7812 106.188L71.1311 105.057L71.1269 105.064L72.7812 106.188ZM12.7812 105.719L11.1225 106.836L11.1266 106.842L12.7812 105.719ZM12.5469 17.3594L14.1984 18.4875L14.2012 18.4833L12.5469 17.3594ZM72.4688 17.9844L70.8086 19.0998L70.8127 19.1057L72.4688 17.9844ZM30.3594 92.0469L28.4981 92.7787L28.5019 92.7883L28.5057 92.7979L30.3594 92.0469ZM54.7344 31.7344L52.8818 32.488L52.8857 32.4975L52.8896 32.507L54.7344 31.7344ZM30.4375 31.7344L32.2934 32.4799L32.2955 32.4744L30.4375 31.7344ZM80.625 61.8906C80.625 81.6926 77.3541 95.9698 71.1311 105.057L74.4314 107.318C81.3334 97.2385 84.625 81.9845 84.625 61.8906H80.625ZM71.1269 105.064C65.0575 113.998 55.6886 118.562 42.625 118.562V122.562C56.7489 122.562 67.4842 117.544 74.4356 107.311L71.1269 105.064ZM42.625 118.562C30.0315 118.562 20.74 113.88 14.4359 104.595L11.1266 106.842C18.26 117.349 28.8644 122.562 42.625 122.562V118.562ZM14.44 104.601C8.09472 95.1826 4.78125 81.04 4.78125 61.8906H0.78125C0.78125 81.3871 4.13445 96.4632 11.1225 106.836L14.44 104.601ZM4.78125 61.8906C4.78125 41.8718 8.02883 27.5197 14.1984 18.4874L10.8954 16.2313C4.04409 26.2616 0.78125 41.597 0.78125 61.8906H4.78125ZM14.2012 18.4833C20.2722 9.54676 29.6167 4.98438 42.625 4.98438V0.984375C28.5499 0.984375 17.8424 6.00532 10.8925 16.2355L14.2012 18.4833ZM42.625 4.98438C55.2096 4.98438 64.5007 9.71119 70.8087 19.0998L74.1288 16.869C66.9993 6.25756 56.3945 0.984375 42.625 0.984375V4.98438ZM70.8127 19.1057C77.2622 28.6311 80.625 42.8012 80.625 61.8906H84.625C84.625 42.4383 81.217 27.3376 74.1248 16.8631L70.8127 19.1057ZM24.7656 61.8906C24.7656 75.9315 25.9548 86.3099 28.4981 92.7787L32.2207 91.3151C29.9723 85.5964 28.7656 75.8706 28.7656 61.8906H24.7656ZM28.5057 92.7979C29.8296 96.0654 31.6596 98.669 34.0732 100.452C36.5047 102.249 39.3894 103.109 42.625 103.109V99.1094C40.1314 99.1094 38.1073 98.4595 36.4502 97.2352C34.7753 95.9977 33.337 94.07 32.213 91.2958L28.5057 92.7979ZM42.625 103.109C45.8251 103.109 48.6822 102.226 51.0972 100.4C53.49 98.5898 55.3195 95.9521 56.6651 92.6442L52.9599 91.137C51.8055 93.975 50.3537 95.9467 48.6841 97.2096C47.0366 98.4558 45.0499 99.1094 42.625 99.1094V103.109ZM56.6651 92.6442C59.3205 86.1165 60.5625 75.7834 60.5625 61.8906H56.5625C56.5625 75.7061 55.3045 85.3731 52.9599 91.137L56.6651 92.6442ZM60.5625 61.8906C60.5625 47.8458 59.2957 37.4484 56.5791 30.9618L52.8896 32.507C55.2772 38.2078 56.5625 47.9146 56.5625 61.8906H60.5625ZM56.587 30.9808C55.2426 27.6758 53.4214 25.0392 51.0435 23.229C48.6424 21.4011 45.8035 20.5156 42.625 20.5156V24.5156C45.0194 24.5156 46.9852 25.1667 48.6206 26.4116C50.2791 27.6743 51.7262 29.6471 52.8818 32.488L56.587 30.9808ZM42.625 20.5156C39.4034 20.5156 36.532 21.396 34.1138 23.2252C31.7166 25.0385 29.899 27.6815 28.5795 30.9943L32.2955 32.4744C33.424 29.6414 34.8615 27.6751 36.5268 26.4154C38.1711 25.1717 40.1695 24.5156 42.625 24.5156V20.5156ZM28.5816 30.9889C25.9806 37.4637 24.7656 47.8485 24.7656 61.8906H28.7656C28.7656 47.9119 29.9985 38.1925 32.2934 32.4799L28.5816 30.9889ZM108.328 20.0156L106.818 18.7047L106.814 18.7088L108.328 20.0156ZM166.609 4.625H168.609V3.00339L167.023 2.66819L166.609 4.625ZM166.609 23.9219L166.171 25.8732L168.609 26.4212V23.9219H166.609ZM132.547 26.1094L131.688 24.303L131.681 24.3063L132.547 26.1094ZM120.828 37.2031L122.594 38.1424L120.828 37.2031ZM116.219 58.0625L114.221 57.9586L114.112 60.0625H116.219V58.0625ZM117.234 58.0625V60.0625H118.384L118.963 59.069L117.234 58.0625ZM164.344 109.938L165.779 111.33L165.784 111.325L164.344 109.938ZM113.641 114.703L112.581 116.399L112.587 116.403L113.641 114.703ZM99.1094 97.5938L97.2865 98.4166L97.2912 98.4271L99.1094 97.5938ZM147.156 96.1094L148.716 97.3616L148.72 97.3559L148.725 97.3502L147.156 96.1094ZM147.391 68.1406L145.822 69.3807L145.833 69.3947L145.844 69.4085L147.391 68.1406ZM123.172 68.0625L121.825 66.5836L121.82 66.5887L121.814 66.5937L123.172 68.0625ZM122.859 94.8594L121.264 96.0656L121.269 96.0717L121.273 96.0779L122.859 94.8594ZM96.0312 70.4844C96.0312 48.1082 100.757 31.8473 109.842 21.3225L106.814 18.7088C96.8368 30.2672 92.0312 47.6522 92.0312 70.4844H96.0312ZM109.839 21.3266C118.934 10.8468 132.626 5.45312 151.297 5.45312V1.45312C131.842 1.45312 116.889 7.10116 106.818 18.7047L109.839 21.3266ZM151.297 5.45312C157.753 5.45312 162.697 5.8426 166.196 6.58181L167.023 2.66819C163.126 1.8449 157.862 1.45312 151.297 1.45312V5.45312ZM164.609 4.625V23.9219H168.609V4.625H164.609ZM167.048 21.9705C162.275 20.8981 157.545 20.3594 152.859 20.3594V24.3594C157.236 24.3594 161.672 24.8623 166.171 25.8732L167.048 21.9705ZM152.859 20.3594C144.398 20.3594 137.306 21.6335 131.688 24.303L133.405 27.9158C138.309 25.5853 144.758 24.3594 152.859 24.3594V20.3594ZM131.681 24.3063C126.106 26.9827 121.876 30.975 119.062 36.2639L122.594 38.1424C124.989 33.6396 128.571 30.2361 133.412 27.9124L131.681 24.3063ZM119.062 36.2639C116.261 41.5303 114.697 48.8177 114.221 57.9586L118.216 58.1664C118.678 49.2865 120.187 42.6676 122.594 38.1424L119.062 36.2639ZM116.219 60.0625H117.234V56.0625H116.219V60.0625ZM118.963 59.069C123.716 50.9063 131.265 46.7812 142 46.7812V42.7812C130.027 42.7812 121.065 47.5104 115.506 57.056L118.963 59.069ZM142 46.7812C151.756 46.7812 159.167 49.8218 164.5 55.7306L167.469 53.0507C161.239 46.1469 152.661 42.7812 142 42.7812V46.7812ZM164.5 55.7306C169.857 61.6674 172.656 69.9891 172.656 80.9531H176.656C176.656 69.313 173.674 59.9263 167.469 53.0507L164.5 55.7306ZM172.656 80.9531C172.656 92.7487 169.341 101.869 162.903 108.55L165.784 111.325C173.097 103.735 176.656 93.5325 176.656 80.9531H172.656ZM162.909 108.545C156.495 115.152 147.532 118.562 135.75 118.562V122.562C148.343 122.562 158.442 118.889 165.779 111.33L162.909 108.545ZM135.75 118.562C127.632 118.562 120.638 116.687 114.694 113.003L112.587 116.403C119.247 120.531 126.993 122.562 135.75 122.562V118.562ZM114.701 113.007C108.821 109.332 104.222 103.949 100.928 96.7604L97.2912 98.4271C100.872 106.239 105.96 112.261 112.581 116.399L114.701 113.007ZM100.932 96.7709C97.6918 89.5921 96.0312 80.8513 96.0312 70.4844H92.0312C92.0312 81.2633 93.7561 90.5954 97.2865 98.4166L100.932 96.7709ZM135.281 103.266C140.929 103.266 145.509 101.355 148.716 97.3616L145.597 94.8571C143.283 97.7389 139.946 99.2656 135.281 99.2656V103.266ZM148.725 97.3502C151.864 93.3813 153.297 87.9297 153.297 81.2656H149.297C149.297 87.414 147.969 91.8583 145.588 94.8686L148.725 97.3502ZM153.297 81.2656C153.297 75.3949 151.924 70.5167 148.937 66.8728L145.844 69.4085C148.065 72.1187 149.297 75.9905 149.297 81.2656H153.297ZM148.96 66.9005C145.93 63.0674 141.392 61.2969 135.75 61.2969V65.2969C140.524 65.2969 143.747 66.7555 145.822 69.3807L148.96 66.9005ZM135.75 61.2969C130.377 61.2969 125.698 63.0577 121.825 66.5836L124.518 69.5414C127.625 66.7132 131.332 65.2969 135.75 65.2969V61.2969ZM121.814 66.5937C118.017 70.1034 116.016 74.3154 116.016 79.1562H120.016C120.016 75.5596 121.452 72.3758 124.529 69.5313L121.814 66.5937ZM116.016 79.1562C116.016 85.7182 117.732 91.3945 121.264 96.0656L124.455 93.6532C121.528 89.7826 120.016 84.9902 120.016 79.1562H116.016ZM121.273 96.0779C124.899 100.797 129.607 103.266 135.281 103.266V99.2656C130.956 99.2656 127.382 97.4629 124.445 93.6409L121.273 96.0779Z" fill="#FFF800"/>
</svg>
